#!OML:ASF H:\Pregnant\Project 1\Capture day 1\Session 1\femalepreg.ASF
:FULLY-SPECIFIED
:DEGREES
339
root 7.34503 12.9092 20.5696 -129.239 6.53205 -176.042
lowerback 1.77848 2.86572 3.51073
upperback -5.47645 4.43418 1.44949
thorax -6.55953 2.19418 -0.788666
lowerneck -34.8505 12.7228 8.78516
upperneck -6.12443 17.8263 -17.5237
head 5.55014 8.98393 -4.29623
rclavicle -4.85035e-014 -1.35174e-014
rhumerus 0.748545 21.6818 -79.9868
rradius 81.646
rwrist -40.7072
rhand -26.5153 -45.1095
rfingers 7.12502
rthumb 0.0480909 -75.0892
lclavicle -4.85035e-014 -1.35174e-014
lhumerus -13.2269 -31.9999 88.9111
lradius 81.4541
lwrist 85.7569
lhand -66.8635 -22.3895
lfingers 7.12502
lthumb -38.6581 3.22757
rfemur -106.731 -10.78 41.6638
rtibia 79.7106
rfoot -21.1557 -3.27207
rtoes -7.03578
lfemur -106.5 14.4302 -28.9503
ltibia 82.3594
lfoot -24.4301 1.31724
ltoes -18.3016
340
root 7.35786 13.0735 20.5507 -130.762 6.60315 -175.945
lowerback 2.98113 2.87624 3.47468
upperback -5.2041 4.45193 1.4469
thorax -6.96434 2.17583 -0.836352
lowerneck -34.8379 12.7247 8.75892
upperneck -6.03708 17.8345 -17.5387
head 5.57955 8.9735 -4.29313
rclavicle 3.49861e-014 1.98785e-014
rhumerus 0.111557 21.7697 -80.1647
rradius 81.7749
rwrist -41.0812
rhand -26.4597 -45.6171
rfingers 7.12502
rthumb 0.101781 -75.5968
lclavicle 3.49861e-014 1.98785e-014
lhumerus -13.5959 -32.2338 88.8667
lradius 81.5991
lwrist 85.1245
lhand -66.6097 -20.1906
lfingers 7.12502
lthumb -38.4186 5.49352
rfemur -103.605 -11.2749 41.2483
rtibia 77.8613
rfoot -20.9797 -3.24125
rtoes -7.15034
lfemur -103.292 14.8538 -28.3599
ltibia 80.5139
lfoot -24.2899 1.34956
ltoes -18.2976
341
root 7.36929 13.2221 20.5342 -132.065 6.67064 -175.842
lowerback 3.92507 2.88653 3.43682
upperback -4.98969 4.46958 1.44272
thorax -7.28301 2.16473 -0.871244
lowerneck -34.8113 12.7322 8.74382
upperneck -5.94605 17.8438 -17.5562
head 5.60993 8.96233 -4.29247
rclavicle -3.29983e-014 1.59028e-015
rhumerus -0.521225 21.8838 -80.3395
rradius 81.8889
rwrist -41.4675
rhand -26.3908 -46.1968
rfingers 7.12502
rthumb 0.168323 -76.1765
lclavicle -3.29983e-014 1.59028e-015
lhumerus -14.0059 -32.4506 88.8482
lradius 81.7466
lwrist 84.4811
lhand -66.3691 -18.2236
lfingers 7.12502
lthumb -38.1915 7.52322
rfemur -100.807 -11.6577 40.8713
rtibia 76.0962
rfoot -20.7614 -3.20563
rtoes -7.20008
lfemur -100.443 15.1982 -27.8024
ltibia 78.7762
lfoot -24.1059 1.39912
ltoes -18.2639
342
root 7.37921 13.3547 20.5205 -133.114 6.73923 -175.745
lowerback 4.56386 2.89837 3.38599
upperback -4.84075 4.48513 1.43127
thorax -7.49592 2.16029 -0.890261
lowerneck -34.7791 12.7454 8.74096
upperneck -5.84546 17.854 -17.574
head 5.64389 8.94971 -4.29337
rclavicle -3.26007e-014 -1.90833e-014
rhumerus -1.14782 22.0187 -80.5128
rradius 81.9914
rwrist -41.8572
rhand -26.3598 -46.7496
rfingers 7.12502
rthumb 0.198221 -76.7293
lclavicle -3.26007e-014 -1.90833e-014
lhumerus -14.4464 -32.6496 88.8484
lradius 81.8916
lwrist 83.8612
lhand -66.1307 -16.411
lfingers 7.12502
lthumb -37.9665 9.39737
rfemur -98.3945 -11.9193 40.5335
rtibia 74.4404
rfoot -20.5051 -3.17285
rtoes -7.20746
lfemur -98.0043 15.4534 -27.3017
ltibia 77.1642
lfoot -23.8837 1.47737
ltoes -18.2203
343
root 7.38739 13.4721 20.5099 -133.915 6.79627 -175.659
lowerback 4.90922 2.90809 3.33018
upperback -4.75713 4.49365 1.41449
thorax -7.60891 2.1589 -0.895867
lowerneck -34.7446 12.7615 8.74105
upperneck -5.73131 17.8645 -17.5858
head 5.68152 8.93542 -4.29254
rclavicle -4.81059e-014 -4.69132e-014
rhumerus -1.76752 22.1706 -80.6834
rradius 82.0779
rwrist -42.2445
rhand -26.3987 -47.2077
rfingers 7.12502
rthumb 0.160682 -77.1874
lclavicle -4.81059e-014 -4.69132e-014
lhumerus -14.9106 -32.8323 88.8662
lradius 82.0307
lwrist 83.3011
lhand -65.8813 -14.7941
lfingers 7.12502
lthumb -37.7308 11.0779
rfemur -96.3678 -12.08 40.2442
rtibia 72.9007
rfoot -20.2147 -3.1524
rtoes -7.20027
lfemur -95.9654 15.6096 -26.8537
ltibia 75.6759
lfoot -23.6234 1.59162
ltoes -18.1804
344
root 7.39387 13.5773 20.5021 -134.533 6.8331 -175.587
lowerback 5.03625 2.91331 3.2795
upperback -4.72274 4.49355 1.39345
thorax -7.6475 2.15742 -0.896227
lowerneck -34.7188 12.7757 8.73609
upperneck -5.59709 17.8717 -17.5835
head 5.72414 8.9177 -4.28658
rclavicle 3.97569e-016 -2.70347e-014
rhumerus -2.38264 22.3318 -80.852
rradius 82.1538
rwrist -42.628
rhand -26.5961 -47.3343
rfingers 7.12502
rthumb -0.0300101 -77.3141
lclavicle 3.97569e-016 -2.70347e-014
lhumerus -15.3763 -33.0079 88.8881
lradius 82.1579
lwrist 82.8228
lhand -65.5822 -13.1843
lfingers 7.12502
lthumb -37.4482 12.7629
rfemur -94.644 -12.1768 39.9942
rtibia 71.4664
rfoot -19.9033 -3.14965
rtoes -7.18966
lfemur -94.233 15.6742 -26.4389
ltibia 74.2954
lfoot -23.3403 1.74201
ltoes -18.1565
345
root 7.39896 13.6744 20.4954 -135.039 6.86555 -175.53
lowerback 5.02125 2.91736 3.22377
upperback -4.7213 4.48944 1.36843
thorax -7.63908 2.15695 -0.889992
lowerneck -34.6872 12.7868 8.7282
upperneck -5.45107 17.874 -17.573
head 5.76817 8.89644 -4.27857
rclavicle 2.42517e-014 -1.59028e-015
rhumerus -3.00053 22.4995 -81.0168
rradius 82.2211
rwrist -43.0073
rhand -26.7962 -47.4579
rfingers 7.12502
rthumb -0.223225 -77.4375
lclavicle 2.42517e-014 -1.59028e-015
lhumerus -15.8328 -33.1861 88.9103
lradius 82.2693
lwrist 82.4378
lhand -65.2404 -11.7643
lfingers 7.12502
lthumb -37.125 14.2678
rfemur -93.1173 -12.2323 39.7596
rtibia 70.1137
rfoot -19.5825 -3.17114
rtoes -7.21632
lfemur -92.6891 15.6757 -26.0494
ltibia 72.9939
lfoot -23.0494 1.91911
ltoes -18.1204
